<svg width="25" height="25" viewBox="0 0 25 25" fill="none" xmlns="http://www.w3.org/2000/svg">
<path d="M1.45667 12.5C1.45667 16.8125 3.89417 20.5625 7.45667 22.4375V2.5625C3.89417 4.4375 1.45667 8.1875 1.45667 12.5Z" fill="#2B2E30"/>
<path d="M23.9567 12.5C23.9567 8.1875 21.5192 4.4375 17.9567 2.5625V22.475C21.5192 20.5625 23.9567 16.8125 23.9567 12.5Z" fill="#95E836"/>
<path d="M12.7067 1.25C10.7942 1.25 9.03166 1.7375 7.45667 2.5625V22.475C9.03166 23.3 10.7942 23.7875 12.7067 23.7875C14.6192 23.7875 16.3817 23.3 17.9567 22.475V2.5625C16.3817 1.7375 14.6192 1.25 12.7067 1.25Z" fill="#CF2738"/>
<path d="M14.1317 14.375H13.7192C13.7192 14.5625 13.6817 14.7125 13.5692 14.825H14.3942C14.2442 14.7125 14.1317 14.525 14.1317 14.375ZM14.1692 12.05L14.3942 11.7875H13.6442L13.2692 11.525L12.1067 11.4875L11.7692 11.7875H11.0192L11.2442 12.05H14.1692ZM12.1817 11.45H13.1942C13.3442 11.375 13.3817 11.1125 13.3817 11C13.3817 10.5875 13.1192 10.4 12.8567 10.4C12.8192 10.4 12.7817 10.3625 12.7442 10.325C12.7067 10.25 12.7067 10.175 12.7067 10.175C12.6692 10.175 12.7067 10.2125 12.6692 10.325C12.6692 10.3625 12.6317 10.4 12.5567 10.4C12.2192 10.4 11.9942 10.6625 12.0317 11C12.0317 11.225 12.0692 11.375 12.1817 11.45ZM13.6442 14.525L13.4567 14.4125V14.1875L13.3442 14.1125V13.8875L13.1567 13.8125V13.625L13.0067 13.5875V13.4L12.7817 13.325L12.6692 13.25V13.1H11.9192V12.9875C11.9192 12.6125 12.4067 12.275 12.7067 12.275C13.0817 12.275 13.4942 12.6125 13.4942 12.9875V13.3625H13.5317V12.9875C13.5317 12.65 13.1192 12.2375 12.7442 12.2375H14.0942V12.2H11.2442V12.2375H12.5942C12.3692 12.2375 11.8067 12.5 11.8067 12.9875V14.3375H12.1067V14.6H11.7317C11.6942 14.6 11.6567 14.525 11.6567 14.45H11.2817C11.2817 14.6375 11.1692 14.7875 11.0192 14.9375H12.1442V14.6375H12.4442L12.5192 14.9375H12.7817L12.6692 14.6375H12.9317L13.1192 14.9375H13.4942L13.2317 14.6375C13.2317 14.525 13.6442 14.525 13.6442 14.525ZM12.1442 14.0375H12.3692L12.4067 14.3H12.1442V14.0375ZM12.6692 14.525H12.4442L12.4067 14.2625H12.5942L12.5192 14H12.6317L12.7817 14.2625H12.5942L12.6692 14.525ZM12.9317 14.525L12.7817 14.2625H13.0067L13.2317 14.525H12.9317Z" fill="white"/>
<path d="M13.4942 13.5125H13.5317V13.8875H13.4942V13.5125ZM11.3192 13.925H11.7317V13.4375H11.3192V13.55L10.4942 12.125L10.5317 12.05C10.5317 11.975 10.4942 11.9375 10.4192 11.9375C10.3442 11.9375 10.3067 11.975 10.3067 12.05C10.3067 12.1625 10.3442 12.1625 10.4192 12.1625H10.4567L10.4942 12.2C10.4192 12.2 10.3442 12.3875 10.1567 12.5375C10.0442 12.6125 9.96917 12.875 9.93167 13.025V13.3625C9.93167 13.4375 9.85667 13.5875 9.89417 13.625C10.0067 13.7 10.1567 13.925 10.2317 14C10.2692 14.0375 10.3442 13.775 10.3817 13.5875V13.55C10.4192 13.4 10.4192 13.2125 10.5317 13.1L10.5692 13.0625C10.6442 12.9875 10.7942 12.9125 10.8692 12.8375L11.3567 13.7L11.3192 13.925ZM11.3192 10.7375H11.6942V10.8125H11.3192V10.7375ZM11.3192 10.8875H11.6942V11.6375H11.3192V10.8875ZM11.5067 10.325C11.4317 10.325 11.2817 10.475 11.3192 10.625H11.7317C11.7317 10.475 11.5817 10.325 11.5067 10.325Z" fill="white"/>
<path d="M11.2817 12.275H11.6942V12.875H11.2817V12.275ZM11.3192 13.2125H11.7317V13.325H11.3192V13.2125ZM11.2817 14H11.7317V14.2625H11.2817V14ZM11.3192 13.1H11.6942L11.7692 12.9875H11.2817L11.3192 13.1ZM12.0692 12.3125H11.8067V12.65C11.8817 12.5 11.9567 12.3875 12.0692 12.3125ZM15.5192 13.175V13.025C15.5192 12.875 15.4442 12.65 15.2942 12.5375C15.1067 12.3875 14.9942 12.2 14.9567 12.2L14.9942 12.1625H15.0317C15.1067 12.1625 15.1442 12.125 15.1442 12.05C15.1442 11.9375 15.1067 11.9375 15.0317 11.9375C14.9567 11.9375 14.9192 11.975 14.9192 12.05L14.9567 12.125L14.1692 13.55V13.4375H13.7567V13.925H14.1692V13.6625L14.6567 12.8C14.6942 12.8375 14.8817 12.9125 14.9567 13.025L14.9942 13.0625C15.1067 13.2125 15.0692 13.3625 15.1067 13.5125V13.55C15.1442 13.7 15.1817 14 15.2567 13.9625C15.3317 13.8875 15.4817 13.7 15.5942 13.5875C15.6317 13.55 15.5567 13.4 15.5567 13.325C15.4817 13.2875 15.5192 13.25 15.5192 13.175ZM13.7567 10.7375H14.1317V10.8125H13.7567V10.7375ZM13.7567 10.8875H14.1317V11.6375H13.7567V10.8875ZM14.1317 10.625C14.1317 10.475 14.0192 10.325 13.9442 10.325C13.8692 10.325 13.7192 10.475 13.7567 10.625H14.1317ZM13.7192 12.275H14.1317V12.875H13.7192V12.275Z" fill="white"/>
<path d="M13.7192 13.2125H14.1317V13.325H13.7192V13.2125ZM13.7192 14H14.1692V14.2625H13.7192V14ZM13.6442 12.9875L13.7192 13.1H14.0942L14.1692 12.9875H13.6442ZM13.6067 12.65V12.3125H13.3442C13.4567 12.3875 13.5317 12.5 13.6067 12.65Z" fill="white"/>
<path d="M16.6817 12.95C16.8317 12.875 17.0192 12.7625 17.1317 12.65C17.2442 12.4625 17.2067 12.125 17.2067 12.125C17.2067 12.125 16.9442 12.2375 16.7192 12.35C16.7192 12.2 16.6442 12.0125 16.5692 11.8625C16.6817 11.75 16.8692 11.6 16.9067 11.4875C17.0192 11.2625 16.8692 10.9625 16.8692 10.9625C16.8692 10.9625 16.6442 11.1125 16.4567 11.3C16.4192 11.15 16.3067 11 16.1942 10.85C16.2692 10.7 16.4192 10.5125 16.4192 10.4C16.4567 10.1375 16.2317 9.875 16.2317 9.875C16.2317 9.875 16.0442 10.1 15.9317 10.325C15.8192 10.175 15.6317 9.9875 15.4817 9.875C15.5567 9.7625 15.5567 9.65 15.5567 9.5C15.5567 8.675 14.2817 8 12.6692 8C11.0942 8 9.78168 8.675 9.78168 9.5C9.78168 9.6125 9.81918 9.7625 9.85668 9.875C9.70668 9.9875 9.51918 10.1375 9.40668 10.325C9.29418 10.1 9.10668 9.875 9.10668 9.875C9.10668 9.875 8.88168 10.1375 8.91918 10.4C8.95668 10.55 9.06918 10.7375 9.14418 10.85C9.03168 11 8.91918 11.15 8.88168 11.3C8.73168 11.1125 8.46918 10.9625 8.46918 10.9625C8.46918 10.9625 8.31918 11.2625 8.43168 11.4875C8.50668 11.6375 8.65668 11.7875 8.76918 11.8625C8.69418 12.0125 8.65668 12.2 8.61918 12.35C8.50668 12.2375 8.20668 12.125 8.20668 12.125C8.20668 12.125 8.13168 12.4625 8.28168 12.65C8.35668 12.7625 8.58168 12.875 8.73168 12.95C8.69418 13.1 8.69418 13.325 8.73168 13.475C8.50668 13.4 8.20668 13.3625 8.20668 13.3625C8.20668 13.3625 8.24418 13.7 8.43168 13.85C8.54418 13.925 8.76918 14 8.91918 14C8.95668 14.15 8.99418 14.375 9.06918 14.4875C8.84418 14.45 8.54418 14.525 8.54418 14.525C8.54418 14.525 8.65668 14.8625 8.88168 14.9375C9.03168 14.975 9.25668 14.975 9.40668 14.975C9.48168 15.125 9.55668 15.3125 9.66918 15.425C9.44418 15.4625 9.18168 15.575 9.18168 15.575C9.18168 15.575 9.36918 15.875 9.63168 15.875C9.78168 15.875 10.0067 15.8375 10.1567 15.7625C10.2692 15.9125 10.3817 16.025 10.5317 16.1375C10.3067 16.25 10.0817 16.4375 10.0817 16.4375C10.0817 16.4375 10.3442 16.6625 10.6067 16.625C10.6817 16.625 10.7192 16.5875 10.7942 16.55L10.4567 17H14.9567L14.6567 16.6625C14.7317 16.7 14.7692 16.7 14.8442 16.7375C15.1067 16.775 15.3692 16.55 15.3692 16.55C15.3692 16.55 15.1442 16.3625 14.9192 16.25C15.0692 16.175 15.1817 16.025 15.2942 15.875C15.4442 15.95 15.6692 15.9875 15.8192 15.9875C16.0817 15.95 16.2692 15.6875 16.2692 15.6875C16.2692 15.6875 16.0067 15.575 15.7817 15.5375C15.8942 15.425 15.9692 15.2375 16.0442 15.0875C16.1942 15.0875 16.4192 15.125 16.5692 15.05C16.7942 14.9375 16.9067 14.6375 16.9067 14.6375C16.9067 14.6375 16.6067 14.6 16.3817 14.6C16.4567 14.45 16.4942 14.2625 16.5317 14.1125C16.6817 14.075 16.9067 14.0375 17.0192 13.9625C17.2067 13.8125 17.2442 13.475 17.2442 13.475C17.2442 13.475 16.9442 13.5125 16.7192 13.5875C16.7192 13.325 16.6817 13.1375 16.6817 12.95ZM10.7942 15.8C10.6817 15.725 10.5317 15.65 10.3817 15.6125C10.4192 15.5 10.4942 15.3875 10.5317 15.275H10.8692C10.8692 15.3875 10.7942 15.6125 10.7942 15.8ZM14.1317 15.65C14.0942 15.7625 14.0942 15.9125 14.1317 16.0625L13.9067 15.8H11.4692L11.2442 16.0625C11.2817 15.9125 11.2817 15.7625 11.2442 15.65C11.2067 15.4625 11.0192 15.35 10.9067 15.3125H14.4317C14.3567 15.35 14.2067 15.4625 14.1317 15.65ZM14.6192 15.8C14.6192 15.6125 14.5442 15.3875 14.5442 15.275H14.8817C14.9192 15.3875 14.9942 15.5375 15.0317 15.6125C14.8817 15.6875 14.7317 15.725 14.6192 15.8ZM16.1567 13.4C15.9692 13.25 15.7067 13.0625 15.7067 13.0625C15.7067 13.0625 15.5942 13.4 15.7067 13.625C15.7817 13.775 16.0067 13.925 16.1192 14C16.0067 14.1125 15.9317 14.225 15.8567 14.3375C15.7442 14.1125 15.5192 13.8875 15.5192 13.8875C15.5192 13.8875 15.3317 14.1875 15.3692 14.4125C15.4067 14.5625 15.5567 14.75 15.6692 14.9C15.5567 14.975 15.4067 15.05 15.3317 15.1625C15.2567 14.9375 15.1067 14.6375 15.1067 14.6375C15.1067 14.6375 14.8442 14.8625 14.8442 15.125C14.8442 15.1625 14.8442 15.2375 14.8817 15.3125L14.5067 14.975H10.9442L10.5692 15.3125C10.5692 15.2375 10.6067 15.2 10.6067 15.125C10.6067 14.8625 10.3442 14.6375 10.3442 14.6375C10.3442 14.6375 10.1942 14.9 10.1192 15.1625C10.0442 15.05 9.89418 14.975 9.78168 14.9C9.89418 14.7875 10.0442 14.6 10.0817 14.4125C10.1567 14.15 9.93168 13.8875 9.93168 13.8875C9.93168 13.8875 9.70668 14.1125 9.59418 14.3375C9.51918 14.225 9.44418 14.1125 9.33168 14C9.48168 13.925 9.66918 13.775 9.74418 13.625C9.85668 13.4 9.74418 13.0625 9.74418 13.0625C9.74418 13.0625 9.44418 13.2125 9.29418 13.4C9.25668 13.2875 9.21918 13.1375 9.14418 13.025C9.29418 12.9875 9.51918 12.875 9.63168 12.7625C9.81918 12.575 9.78168 12.2375 9.78168 12.2375C9.78168 12.2375 9.48168 12.3125 9.25668 12.425C9.25668 12.3125 9.25668 12.1625 9.21918 12.0125C9.36918 12.0125 9.63168 11.975 9.78168 11.9C10.0067 11.75 10.0442 11.4125 10.0442 11.4125C10.0442 11.4125 9.70668 11.4125 9.48168 11.4875C9.51918 11.375 9.51918 11.225 9.55668 11.075C9.70668 11.1125 9.96918 11.15 10.1192 11.1125C10.3817 11.0375 10.4942 10.7375 10.4942 10.7375C10.4942 10.7375 10.1942 10.6625 9.93168 10.6625C10.1192 10.3625 10.1942 9.8 10.1942 9.8C10.1942 9.8 10.1567 9.8 10.1192 9.8375C10.5692 9.3125 11.5817 8.9375 12.7442 8.9375C13.9067 8.9375 14.9192 9.3125 15.3692 9.8375C15.3317 9.8 15.2942 9.8 15.2942 9.8C15.2942 9.8 15.3692 10.3625 15.5567 10.6625C15.2942 10.6625 14.9942 10.7375 14.9942 10.7375C14.9942 10.7375 15.1442 11.0375 15.3692 11.1125C15.5192 11.15 15.7817 11.1125 15.9317 11.075C15.9317 11.225 15.9317 11.375 16.0067 11.4875C15.7817 11.4125 15.4442 11.4125 15.4442 11.4125C15.4442 11.4125 15.5192 11.75 15.7067 11.9C15.8567 11.975 16.0817 12.0125 16.2692 12.0125C16.2317 12.1625 16.1942 12.3125 16.2317 12.425C16.0067 12.3125 15.7067 12.2375 15.7067 12.2375C15.7067 12.2375 15.6692 12.575 15.8567 12.7625C15.9692 12.875 16.1942 12.95 16.3442 13.025C16.2692 13.1375 16.1942 13.25 16.1567 13.4Z" fill="white"/>
</svg>
